<?xml version="1.0" encoding="utf-8"?>
<!-- Generator: Adobe Illustrator 19.1.0, SVG Export Plug-In . SVG Version: 6.00 Build 0)  -->
<svg version="1.1" id="Layer_1" xmlns="http://www.w3.org/2000/svg" xmlns:xlink="http://www.w3.org/1999/xlink" x="0px" y="0px"
	 viewBox="392 -218.1 1024 821.1" style="enable-background:new 392 -218.1 1024 821.1;" xml:space="preserve">
<style type="text/css">
	.st0{fill:#E5E5E5;}
	.st1{fill:none;}
	.st2{enable-background:new    ;}
	.st3{stroke:#000000;stroke-width:2;stroke-miterlimit:10;}
	.st4{fill:none;stroke:#000000;stroke-width:2;stroke-miterlimit:10;}
	.st5{fill:#FFFFFF;}
</style>
<rect x="1835.5" y="-491.7" class="st0" width="221.3" height="46.8"/>
<rect x="1569.2" y="-491.7" class="st0" width="221.3" height="46.8"/>
<rect x="1702.7" y="-683.3" class="st0" width="221.3" height="48.9"/>
<rect x="1970.6" y="-819.3" class="st0" width="221.3" height="47"/>
<rect x="1971.2" y="-737.9" class="st1" width="129.6" height="26.4"/>
<text transform="matrix(1 0 0 1 1978.7422 -741.7675)" style="font-family:'MyriadPro-Regular'; font-size:18px;">Sum: \texttt{30}</text>
<rect x="1971" y="-804.5" class="st1" width="129.6" height="26.4"/>
<text transform="matrix(1 0 0 1 1978.5264 -786.9563)" style="font-family:'MyriadPro-Regular'; font-size:18px;">Hash: \texttt{533c581c}</text>
<rect x="1703.1" y="-604.1" class="st1" width="129.6" height="26.4"/>
<text transform="matrix(1 0 0 1 1710.7202 -605.8934)" style="font-family:'MyriadPro-Regular'; font-size:18px;">Sum: \texttt{20}</text>
<rect x="1970.2" y="-872.4" class="st3" width="221.7" height="53.1"/>
<rect x="1835.8" y="-491.7" class="st4" width="221.7" height="166.7"/>
<rect x="1702.6" y="-683.3" class="st4" width="221.7" height="93.4"/>
<rect x="1970.2" y="-819.3" class="st4" width="221.7" height="92"/>
<line class="st4" x1="1679.8" y1="-544.8" x2="1813.5" y2="-589.3"/>
<line class="st4" x1="1946.2" y1="-544.8" x2="1813.5" y2="-589.3"/>
<rect x="1970.2" y="-860" class="st1" width="221.7" height="40.8"/>
<text transform="matrix(1 0 0 1 2057.6611 -833.5322)" class="st5" style="font-family:'MyriadPro-Regular'; font-size:37.3074px;">root</text>
<rect x="1569" y="-544.8" class="st3" width="221.7" height="53.1"/>
<rect x="1835.3" y="-544.8" class="st3" width="221.7" height="53.1"/>
<rect x="1569.5" y="-532.4" class="st1" width="221.7" height="40.8"/>
<text transform="matrix(1 0 0 1 1643.0234 -506.035)" class="st5" style="font-family:'MyriadPro-Regular'; font-size:37.3074px;">leaf 1</text>
<rect x="1835.3" y="-532.4" class="st1" width="221.7" height="40.8"/>
<text transform="matrix(1 0 0 1 1908.9326 -506.035)" class="st5" style="font-family:'MyriadPro-Regular'; font-size:37.3074px;">leaf 2</text>
<rect x="1702.9" y="-668.6" class="st1" width="129.6" height="26.4"/>
<text transform="matrix(1 0 0 1 1710.5054 -651.0116)" style="font-family:'MyriadPro-Regular'; font-size:18px;">Hash: \texttt{792321fe}</text>
<rect x="1569.5" y="-410.7" class="st1" width="129.6" height="26.4"/>
<text transform="matrix(1 0 0 1 1576.9111 -414.689)" style="font-family:'MyriadPro-Regular'; font-size:18px;">Balance: \texttt{10}</text>
<rect x="1569.5" y="-352.4" class="st1" width="129.6" height="26.4"/>
<text transform="matrix(1 0 0 1 1576.9111 -379.0784)" style="font-family:'MyriadPro-Regular'; font-size:18px;">Account: \texttt{alice}</text>
<text transform="matrix(1 0 0 1 1576.9111 -343.386)" style="font-family:'MyriadPro-Regular'; font-size:18px;">Nonce: \texttt{db6da320}</text>
<rect x="1835.8" y="-410.7" class="st1" width="129.6" height="26.4"/>
<text transform="matrix(1 0 0 1 1843.2471 -414.689)" style="font-family:'MyriadPro-Regular'; font-size:18px;">Balance: \texttt{10}</text>
<rect x="1835.8" y="-352.4" class="st1" width="129.6" height="26.4"/>
<text transform="matrix(1 0 0 1 1843.2471 -379.0784)" style="font-family:'MyriadPro-Regular'; font-size:18px;">Account: \texttt{bob}</text>
<text transform="matrix(1 0 0 1 1843.2471 -343.386)" style="font-family:'MyriadPro-Regular'; font-size:18px;">Nonce: \texttt{44b470c9}</text>
<rect x="1569.8" y="-477" class="st1" width="129.6" height="26.4"/>
<text transform="matrix(1 0 0 1 1577.3418 -459.4642)" style="font-family:'MyriadPro-Regular'; font-size:18px;">Hash: \texttt{222bb428}</text>
<rect x="1836.1" y="-477" class="st1" width="129.6" height="26.4"/>
<text transform="matrix(1 0 0 1 1843.6777 -459.4642)" style="font-family:'MyriadPro-Regular'; font-size:18px;">Hash: \texttt{902dfc4c}</text>
<rect x="1569.5" y="-491.7" class="st4" width="221.7" height="166.7"/>
<line class="st4" x1="1813.5" y1="-683.3" x2="2081.1" y2="-727.8"/>
<rect x="2370.3" y="-491.3" class="st0" width="221.3" height="46.8"/>
<rect x="2104" y="-491.3" class="st0" width="221.3" height="46.8"/>
<rect x="2237.5" y="-682.9" class="st0" width="221.3" height="48.9"/>
<rect x="2237.9" y="-603.4" class="st1" width="129.6" height="26.4"/>
<text transform="matrix(1 0 0 1 2245.458 -605.1687)" style="font-family:'MyriadPro-Regular'; font-size:18px;">Sum: \texttt{10}</text>
<rect x="2370.5" y="-491.3" class="st4" width="221.7" height="166.7"/>
<rect x="2237.3" y="-682.9" class="st4" width="221.7" height="93.4"/>
<line class="st4" x1="2214.5" y1="-544.1" x2="2348.2" y2="-588.6"/>
<line class="st4" x1="2481" y1="-544.1" x2="2348.2" y2="-588.6"/>
<rect x="2103.7" y="-544.1" class="st3" width="221.7" height="53.1"/>
<rect x="2370" y="-544.1" class="st3" width="221.7" height="53.1"/>
<rect x="2104.2" y="-531.7" class="st1" width="221.7" height="40.8"/>
<text transform="matrix(1 0 0 1 2177.7607 -505.3124)" class="st5" style="font-family:'MyriadPro-Regular'; font-size:37.3074px;">leaf 3</text>
<rect x="2370" y="-531.7" class="st1" width="221.7" height="40.8"/>
<text transform="matrix(1 0 0 1 2443.6699 -505.3124)" class="st5" style="font-family:'MyriadPro-Regular'; font-size:37.3074px;">leaf 4</text>
<rect x="2237.6" y="-667.9" class="st1" width="129.6" height="26.4"/>
<text transform="matrix(1 0 0 1 2245.2373 -650.2977)" style="font-family:'MyriadPro-Regular'; font-size:18px;">Hash: \texttt{61909a1f}</text>
<rect x="2104.2" y="-410" class="st1" width="129.6" height="26.4"/>
<text transform="matrix(1 0 0 1 2111.6582 -413.9642)" style="font-family:'MyriadPro-Regular'; font-size:18px;">Balance: \texttt{7}</text>
<rect x="2104.2" y="-351.7" class="st1" width="129.6" height="26.4"/>
<text transform="matrix(1 0 0 1 2111.6582 -378.35)" style="font-family:'MyriadPro-Regular'; font-size:18px;">Account: \texttt{carol}</text>
<text transform="matrix(1 0 0 1 2111.6582 -342.6674)" style="font-family:'MyriadPro-Regular'; font-size:18px;">Nonce: \texttt{724e75bc}</text>
<rect x="2370.5" y="-410" class="st1" width="129.6" height="26.4"/>
<text transform="matrix(1 0 0 1 2377.9932 -413.9642)" style="font-family:'MyriadPro-Regular'; font-size:18px;">Balance: \texttt{3}</text>
<rect x="2370.5" y="-351.7" class="st1" width="129.6" height="26.4"/>
<text transform="matrix(1 0 0 1 2377.9932 -378.35)" style="font-family:'MyriadPro-Regular'; font-size:18px;">Account: \texttt{dave}</text>
<text transform="matrix(1 0 0 1 2377.9932 -342.6674)" style="font-family:'MyriadPro-Regular'; font-size:18px;">Nonce: \texttt{7537df46}</text>
<rect x="2104.5" y="-476.2" class="st1" width="129.6" height="26.4"/>
<text transform="matrix(1 0 0 1 2112.084 -458.7444)" style="font-family:'MyriadPro-Regular'; font-size:18px;">Hash: \texttt{e448ada2}</text>
<rect x="2370.9" y="-476.2" class="st1" width="129.6" height="26.4"/>
<text transform="matrix(1 0 0 1 2378.4102 -458.7444)" style="font-family:'MyriadPro-Regular'; font-size:18px;">Hash: \texttt{066c2edd}</text>
<rect x="2104.2" y="-491.3" class="st4" width="221.7" height="166.7"/>
<line class="st4" x1="2348.2" y1="-682.6" x2="2081" y2="-727.1"/>
</svg>
